<mxfile host="app.diagrams.net" modified="2024-09-03T22:05:37.158Z" agent="Mozilla/5.0 (Windows NT 10.0; Win64; x64; rv:129.0) Gecko/20100101 Firefox/129.0" etag="v830HlBo-t43hHCnWhek" version="24.0.7" type="device">
  <diagram name="Page-1" id="FrDnRVKUeRx1vvkHNeLB">
    <mxGraphModel dx="1434" dy="820" grid="1" gridSize="10" guides="1" tooltips="1" connect="1" arrows="1" fold="1" page="1" pageScale="1" pageWidth="850" pageHeight="1100" math="0" shadow="0">
      <root>
        <mxCell id="0" />
        <mxCell id="1" parent="0" />
        <mxCell id="YrLfEOWAAipud0qDv6J8-4" value="" style="edgeStyle=orthogonalEdgeStyle;rounded=0;orthogonalLoop=1;jettySize=auto;html=1;" edge="1" parent="1" source="YrLfEOWAAipud0qDv6J8-1" target="YrLfEOWAAipud0qDv6J8-3">
          <mxGeometry relative="1" as="geometry" />
        </mxCell>
        <mxCell id="YrLfEOWAAipud0qDv6J8-12" value="" style="edgeStyle=orthogonalEdgeStyle;rounded=0;orthogonalLoop=1;jettySize=auto;html=1;" edge="1" parent="1" source="YrLfEOWAAipud0qDv6J8-1" target="YrLfEOWAAipud0qDv6J8-3">
          <mxGeometry relative="1" as="geometry" />
        </mxCell>
        <mxCell id="YrLfEOWAAipud0qDv6J8-14" value="" style="edgeStyle=orthogonalEdgeStyle;rounded=0;orthogonalLoop=1;jettySize=auto;html=1;" edge="1" parent="1" source="YrLfEOWAAipud0qDv6J8-1" target="YrLfEOWAAipud0qDv6J8-13">
          <mxGeometry relative="1" as="geometry" />
        </mxCell>
        <mxCell id="YrLfEOWAAipud0qDv6J8-1" value="GRC_FAST" style="rounded=1;whiteSpace=wrap;html=1;" vertex="1" parent="1">
          <mxGeometry x="360" y="40" width="120" height="60" as="geometry" />
        </mxCell>
        <mxCell id="YrLfEOWAAipud0qDv6J8-9" style="edgeStyle=orthogonalEdgeStyle;rounded=0;orthogonalLoop=1;jettySize=auto;html=1;exitX=0.5;exitY=1;exitDx=0;exitDy=0;entryX=0.5;entryY=0;entryDx=0;entryDy=0;" edge="1" parent="1" source="YrLfEOWAAipud0qDv6J8-3" target="YrLfEOWAAipud0qDv6J8-5">
          <mxGeometry relative="1" as="geometry" />
        </mxCell>
        <mxCell id="YrLfEOWAAipud0qDv6J8-10" style="edgeStyle=orthogonalEdgeStyle;rounded=0;orthogonalLoop=1;jettySize=auto;html=1;exitX=0;exitY=0.5;exitDx=0;exitDy=0;" edge="1" parent="1" source="YrLfEOWAAipud0qDv6J8-3" target="YrLfEOWAAipud0qDv6J8-11">
          <mxGeometry relative="1" as="geometry">
            <mxPoint x="190" y="280" as="targetPoint" />
          </mxGeometry>
        </mxCell>
        <mxCell id="YrLfEOWAAipud0qDv6J8-3" value="Landing" style="rounded=1;whiteSpace=wrap;html=1;" vertex="1" parent="1">
          <mxGeometry x="360" y="180" width="120" height="60" as="geometry" />
        </mxCell>
        <mxCell id="YrLfEOWAAipud0qDv6J8-5" value="" style="swimlane;startSize=0;" vertex="1" parent="1">
          <mxGeometry x="320" y="280" width="200" height="200" as="geometry" />
        </mxCell>
        <mxCell id="YrLfEOWAAipud0qDv6J8-6" value="&amp;lt;&amp;lt;Catchy line&amp;gt;&amp;gt;&lt;br&gt;{Get GRC resolved, fast.}" style="text;html=1;align=center;verticalAlign=middle;resizable=0;points=[];autosize=1;strokeColor=none;fillColor=none;" vertex="1" parent="YrLfEOWAAipud0qDv6J8-5">
          <mxGeometry x="21" y="35" width="160" height="40" as="geometry" />
        </mxCell>
        <mxCell id="YrLfEOWAAipud0qDv6J8-8" value="&lt;div&gt;# Focus points&lt;/div&gt;&lt;div&gt;- Quick first load time&lt;/div&gt;&lt;div&gt;- *NO* heavy graphics (or offland with &amp;lt;defer&amp;gt;&lt;/div&gt;&lt;div&gt;- Quick summary&lt;/div&gt;&lt;div&gt;- Mock ups&lt;br&gt;&lt;/div&gt;" style="text;html=1;whiteSpace=wrap;overflow=hidden;rounded=0;" vertex="1" parent="1">
          <mxGeometry x="330" y="370" width="180" height="120" as="geometry" />
        </mxCell>
        <mxCell id="YrLfEOWAAipud0qDv6J8-11" value="Nice to haves:&lt;br&gt;&lt;div&gt;- Cookie track + opt out&lt;/div&gt;&lt;div&gt;- Google analytics&lt;br&gt;&lt;/div&gt;" style="rounded=1;whiteSpace=wrap;html=1;" vertex="1" parent="1">
          <mxGeometry x="190" y="180" width="120" height="60" as="geometry" />
        </mxCell>
        <mxCell id="YrLfEOWAAipud0qDv6J8-13" value="Pricing/Product" style="whiteSpace=wrap;html=1;rounded=1;" vertex="1" parent="1">
          <mxGeometry x="590" y="180" width="120" height="60" as="geometry" />
        </mxCell>
      </root>
    </mxGraphModel>
  </diagram>
</mxfile>
